PathFileType	4	(X/Y/Z)	/Users/itak/Documents/Research/Walk-IL/dataset/trc/00064_00006.trc
DataRate	CameraRate	NumFrames	NumMarkers	Units	OrigDataRate	OrigDataStartFrame	OrigNumFrames
100.000000	100.000000	4	53	mm	100.000000	286	764
Frame#	Time	RPSI			LPSI			L3			STRN			T10			C7			CLAV			RBAK			LBAK			LSHO			LUPA			LAEL			LAOL			LWTS			LWPS			LFRA			LIFD			LHPS			LHTS			RSHO			RUPA			RAEL			RAOL			RWTS			RWPS			RFRA			RIFD			RHTS			RHPS			RBHD			LFHD			RFHD			LBHD			LHIP			RHIP			RASI			LASI			LKNE			LTHI			LANK			LTIP			LTOE			LMT1			LMT5			LHEE			RKNE			RTHI			RANK			RTIP			RTOE			RMT1			RMT5			RHEE			
		X1	Y1	Z1	X2	Y2	Z2	X3	Y3	Z3	X4	Y4	Z4	X5	Y5	Z5	X6	Y6	Z6	X7	Y7	Z7	X8	Y8	Z8	X9	Y9	Z9	X10	Y10	Z10	X11	Y11	Z11	X12	Y12	Z12	X13	Y13	Z13	X14	Y14	Z14	X15	Y15	Z15	X16	Y16	Z16	X17	Y17	Z17	X18	Y18	Z18	X19	Y19	Z19	X20	Y20	Z20	X21	Y21	Z21	X22	Y22	Z22	X23	Y23	Z23	X24	Y24	Z24	X25	Y25	Z25	X26	Y26	Z26	X27	Y27	Z27	X28	Y28	Z28	X29	Y29	Z29	X30	Y30	Z30	X31	Y31	Z31	X32	Y32	Z32	X33	Y33	Z33	X34	Y34	Z34	X35	Y35	Z35	X36	Y36	Z36	X37	Y37	Z37	X38	Y38	Z38	X39	Y39	Z39	X40	Y40	Z40	X41	Y41	Z41	X42	Y42	Z42	X43	Y43	Z43	X44	Y44	Z44	X45	Y45	Z45	X46	Y46	Z46	X47	Y47	Z47	X48	Y48	Z48	X49	Y49	Z49	X50	Y50	Z50	X51	Y51	Z51	X52	Y52	Z52	X53	Y53	Z53	

287	2.86	949.8231811523438	1013.303649902344	414.882568359375	776.3375854492188	994.0107421875	397.967529296875	863.1149291992188	1062.6611328125	404.7464294433594	916.6111450195312	1256.240966796875	147.1270904541016	864.63916015625	1196.6484375	415.6523132324219	883.5579833984375	1461.217895507812	349.9664306640625	912.0245971679688	1371.652954101562	174.8283081054688	942.2760009765625	1322.627563476562	425.7808837890625	780.7212524414062	1428.806518554688	357.5347290039062	725.2430419921875	1431.451782226562	244.8215637207031	636.8087158203125	1313.858154296875	259.1620483398438	592.9522094726562	1104.371948242188	251.9262542724609	673.3110961914062	1084.523681640625	320.2898864746094	641.7335205078125	858.0097045898438	168.7470245361328	576.9923706054688	853.4242553710938	222.6212158203125	575.9871826171875	995.37451171875	232.7225494384766	650.8014526367188	671.4998168945312	165.9995574951172	577.9254150390625	770.2185668945312	192.8369445800781	634.4337158203125	774.4122924804688	149.638671875	1064.51123046875	1422.170776367188	318.2017517089844	1126.380737304688	1356.993286132812	341.9523010253906	1180.998413085938	1097.654174804688	374.2319946289062	1092.411865234375	1065.953491210938	338.7481994628906	1197.467651367188	856.2064208984375	209.3289947509766	1232.835693359375	840.1767578125	288.095703125	1200.750366210938	1018.71875	358.538818359375	1194.140258789062	663.6968994140625	200.1185150146484	1209.685791015625	751.6365356445312	186.3377990722656	1247.537109375	752.2081298828125	253.4230651855469	873.0830078125	1639.1669921875	321.7058715820312	937.2188110351562	1664.971069335938	117.5758895874023	816.4804077148438	1666.310180664062	154.7227020263672	1001.463317871094	1629.932373046875	272.5968933105469	706.148681640625	934.5843505859375	277.89501953125	1037.868896484375	943.6791381835938	368.3221130371094	1044.07177734375	953.0862426757812	242.3789520263672	784.6976318359375	944.3816528320312	181.9713439941406	798.3356323242188	514.8003540039062	64.12225341796875	737.3588256835938	629.0780639648438	143.4843597412109	828.4463500976562	46.13261795043945	26.0990047454834	800.6797485351562	266.1809997558594	50.0028190612793	839.1058349609375	110.1681976318359	-164.7633361816406	889.507080078125	90.04053497314453	-121.2427673339844	791.40869140625	70.19517517089844	-72.87107849121094	901.6386108398438	33.38006210327148	78.03288269042969	1026.641479492188	499.4808959960938	345.4237365722656	1058.788452148438	767.4483032226562	304.3629455566406	979.1046752929688	37.34553146362305	518.7598876953125	1022.866088867188	381.7098083496094	392.1491394042969	1008.174987792969	29.73964881896973	301.6569213867188	953.4823608398438	41.06932830810547	348.2103881835938	1034.107666015625	33.51824569702148	406.6162414550781	910.6434326171875	47.24154281616211	545.5108032226562	
288	2.87	951.5650024414062	1011.757751464844	406.1779174804688	777.9054565429688	992.173583984375	390.2113952636719	864.7821044921875	1061.086059570312	396.6503601074219	915.4725952148438	1254.577514648438	138.7449340820312	866.3104248046875	1194.942626953125	407.543212890625	884.3469848632812	1459.569091796875	341.6380004882812	910.9894409179688	1369.971435546875	166.3494110107422	943.9862060546875	1321.104125976562	416.906982421875	781.640869140625	1426.974853515625	350.2578735351562	724.9161376953125	1429.54345703125	238.0664978027344	636.8784790039062	1311.808471679688	253.4215240478516	593.2078247070312	1102.255249023438	246.5844268798828	674.3142700195312	1082.6162109375	314.2012939453125	641.4404296875	855.8626708984375	163.2428131103516	577.2002563476562	851.3331298828125	217.7242584228516	576.1256103515625	993.162109375	227.7350311279297	650.5576171875	669.3515625	160.7452087402344	577.8493041992188	768.0695190429688	188.0600738525391	633.95263671875	772.2005004882812	144.3145904541016	1065.030395507812	1420.69580078125	307.9150695800781	1127.211181640625	1355.483520507812	330.87158203125	1182.743041992188	1096.020385742188	361.6900939941406	1093.642211914062	1064.419921875	327.2639770507812	1196.710083007812	855.7310791015625	194.8317565917969	1233.164428710938	838.968017578125	273.0124816894531	1202.286010742188	1017.063110351562	345.2707824707031	1192.870239257812	663.2664794921875	184.1307983398438	1208.425659179688	751.296142578125	170.8296356201172	1247.203369140625	751.2504272460938	237.4160919189453	873.6383056640625	1637.379638671875	313.4765930175781	935.69189453125	1663.390380859375	108.7896347045898	815.343994140625	1664.777221679688	147.0806274414062	1001.462585449219	1628.123168945312	263.1250610351562	707.0560913085938	932.2305297851562	270.8861389160156	1039.390869140625	942.5143432617188	358.9219665527344	1044.654907226562	951.7454833984375	232.9171447753906	784.8195190429688	942.4747314453125	174.1019439697266	798.9267578125	512.6445922851562	59.33046340942383	738.360595703125	625.6533813476562	139.345458984375	828.6531982421875	46.58091735839844	4.806607723236084	800.8704223632812	265.951904296875	37.26584243774414	836.0113525390625	117.2372970581055	-183.9607849121094	887.1766357421875	95.78047180175781	-141.9520568847656	789.9595947265625	73.82376098632812	-92.83572387695312	902.38330078125	32.39522552490234	55.24728393554688	1027.115356445312	498.5446472167969	339.3587036132812	1059.580810546875	766.1016845703125	295.8958129882812	979.0011596679688	38.24979019165039	518.5550537109375	1023.340026855469	381.2602844238281	387.7151184082031	1008.160705566406	29.64105224609375	301.4852600097656	953.4813842773438	41.06755447387695	348.0120239257812	1034.07177734375	33.68452835083008	406.3690490722656	910.5653686523438	48.55797576904297	545.173583984375	
289	2.88	953.1046752929688	1010.196105957031	397.370849609375	779.3084716796875	990.3187866210938	382.3031616210938	866.2884521484375	1059.52099609375	388.4671325683594	914.2182006835938	1252.90966796875	130.280029296875	867.8260498046875	1193.221435546875	399.2916564941406	884.9683837890625	1457.91748046875	333.2412414550781	909.7708129882812	1368.263061523438	157.8686218261719	945.5026245117188	1319.578247070312	407.9639587402344	782.3905639648438	1425.12060546875	342.8788146972656	724.444091796875	1427.618041992188	231.1995849609375	636.8258056640625	1309.732543945312	247.5872650146484	593.3355102539062	1100.107421875	241.058837890625	675.1748657226562	1080.641479492188	307.9634094238281	641.097900390625	853.7262573242188	157.5374298095703	577.3328857421875	849.2069091796875	212.5867462158203	576.1907958984375	990.9423828125	222.5562286376953	650.3531494140625	667.2149047851562	155.2061767578125	577.7720947265625	765.9012451171875	183.0316009521484	633.4915771484375	770.0031127929688	138.7563781738281	1065.369384765625	1419.203857421875	297.5769348144531	1127.838134765625	1353.9306640625	319.7305297851562	1184.256469726562	1094.370971679688	349.0873107910156	1094.644287109375	1062.871215820312	315.7633972167969	1195.631103515625	855.203125	180.4398040771484	1233.180541992188	837.72802734375	258.016845703125	1203.558227539062	1015.397338867188	331.9720458984375	1191.276123046875	662.7695922851562	168.3624420166016	1206.849487304688	750.8778686523438	155.4882659912109	1246.542602539062	750.2517700195312	221.5565185546875	874.0684204101562	1635.588745117188	305.18603515625	934.0091552734375	1661.823852539062	99.93613433837891	814.066162109375	1663.255981445312	139.3831024169922	1001.310119628906	1626.31396484375	253.5742034912109	707.8995361328125	929.9144897460938	263.5630493164062	1040.745361328125	941.3279418945312	349.4834594726562	1045.186279296875	950.43359375	223.3938140869141	784.8997802734375	940.5397338867188	166.1116027832031	799.3155517578125	510.6400451660156	53.98261642456055	739.3958740234375	622.4483032226562	134.7239379882812	828.8272705078125	47.16812896728516	-14.59732913970947	800.8977661132812	265.7539367675781	25.29859924316406	832.3121337890625	123.5588226318359	-201.28173828125	884.3345947265625	101.0691833496094	-160.8809509277344	788.2127075195312	77.01255798339844	-110.7764053344727	903.3025512695312	31.96513557434082	34.16674423217773	1027.617919921875	497.6392822265625	333.1080322265625	1060.28369140625	764.7733154296875	287.3515625	978.9867553710938	39.28634262084961	518.3331298828125	1023.864562988281	380.8644714355469	383.1227722167969	1008.145874023438	29.55661773681641	301.3353576660156	953.5050659179688	41.07454299926758	347.8300476074219	1034.05224609375	33.83543014526367	406.131103515625	910.5896606445312	50.0791130065918	544.8326416015625	
290	2.89	954.4490356445312	1008.642028808594	388.4472961425781	780.5621337890625	988.4795532226562	374.2605285644531	867.6378173828125	1057.9833984375	380.1748962402344	912.8734130859375	1251.26123046875	121.6980667114258	869.1912231445312	1191.508544921875	390.8922119140625	885.4253540039062	1456.282592773438	324.7712707519531	908.3984375	1366.564819335938	149.3387756347656	946.828857421875	1318.068969726562	398.9415588378906	782.9666137695312	1423.26513671875	335.3882446289062	723.8351440429688	1425.693603515625	224.2242736816406	636.64501953125	1307.65087890625	241.6488647460938	593.3388671875	1097.945190429688	235.3478393554688	675.9027709960938	1078.61328125	301.5670166015625	640.6929321289062	851.6135864257812	151.6272735595703	577.3916625976562	847.0601806640625	207.2238311767578	576.18115234375	988.7326049804688	217.1871795654297	650.1729736328125	665.1054077148438	149.3726501464844	577.6920166015625	763.72314453125	177.7582855224609	633.0330810546875	767.8355712890625	132.9609375	1065.531005859375	1417.719116210938	287.1873474121094	1128.263671875	1352.357055664062	308.5303039550781	1185.522583007812	1092.727416992188	336.4223022460938	1095.403198242188	1061.337158203125	304.2539367675781	1194.236328125	854.644287109375	166.1674957275391	1232.890625	836.4820556640625	243.1144561767578	1204.556640625	1013.745727539062	318.64306640625	1189.381469726562	662.2158203125	152.8432769775391	1204.96435546875	750.39404296875	140.3305206298828	1245.574951171875	749.2353515625	205.8553771972656	874.3662109375	1633.82275390625	296.8258056640625	932.1696166992188	1660.28955078125	91.01344299316406	812.6452026367188	1661.767333984375	131.6303253173828	1001.005920410156	1624.5302734375	243.9416046142578	708.6746215820312	927.6829833984375	255.9442443847656	1041.938720703125	940.13232421875	339.9891662597656	1045.645385742188	949.1497192382812	213.8040771484375	784.9358520507812	938.6144409179688	158.0053100585938	799.46923828125	508.7999267578125	48.0252571105957	740.4055786132812	619.5478515625	129.4792938232422	829.0499267578125	47.6758918762207	-32.02421569824219	800.8135986328125	265.454833984375	14.08791065216064	828.142822265625	128.8408050537109	-216.7316284179688	881.0985717773438	105.6224670410156	-177.9938049316406	786.2769775390625	79.51190185546875	-126.6573638916016	904.4695434570312	31.89157485961914	14.91202926635742	1028.176391601562	496.7797241210938	326.6829528808594	1060.920654296875	763.4811401367188	278.7248840332031	979.0980224609375	40.48461532592773	518.09033203125	1024.458862304688	380.537353515625	378.3813781738281	1008.129638671875	29.48492240905762	301.2127990722656	953.5550537109375	41.09225463867188	347.6705322265625	1034.062866210938	33.96294021606445	405.9076232910156	910.7542114257812	51.82425689697266	544.4882202148438	
